<svg width="646" height="146" viewBox="0 0 646 146" fill="none" xmlns="http://www.w3.org/2000/svg">
<path d="M31.3013 1.68V-3.04729e-06H37.0613V1.68H31.3013ZM39.0966 1.68V-3.04729e-06H44.8566V1.68H39.0966ZM46.8919 1.68V-3.04729e-06H52.6519V1.68H46.8919ZM54.6872 1.68V-3.04729e-06H60.4472V1.68H54.6872ZM320.323 1.68V-3.04729e-06H333.283V1.68H320.323ZM351.504 1.68V-3.04729e-06H364.464V1.68H351.504ZM523.001 1.68V-3.04729e-06H535.961V1.68H523.001ZM632.136 1.68V-3.04729e-06H645.096V1.68H632.136ZM23.386 17.02L27.526 5.74H29.386L25.246 17.02H23.386ZM39.6919 17.68V16H52.6519V17.68H39.6919ZM54.5672 17.02L58.7072 5.74H60.5672L56.4272 17.02H54.5672ZM62.4825 17.68V16H68.2425V17.68H62.4825ZM70.2778 17.68V16H76.0378V17.68H70.2778ZM78.0731 17.68V16H83.8331V17.68H78.0731ZM85.8685 17.68V16H91.6285V17.68H85.8685ZM93.6638 17.68V16H99.4238V17.68H93.6638ZM101.459 17.68V16H107.219V17.68H101.459ZM109.254 17.68V16H115.014V17.68H109.254ZM132.64 17.68V16H138.4V17.68H132.64ZM140.436 17.68V16H146.196V17.68H140.436ZM148.231 17.68V16H153.991V17.68H148.231ZM156.026 17.68V16H161.786V17.68H156.026ZM171.617 17.68V16H177.377V17.68H171.617ZM179.412 17.68V16H185.172V17.68H179.412ZM187.208 17.68V16H192.968V17.68H187.208ZM210.593 17.68V16H216.353V17.68H210.593ZM218.389 17.68V16H224.149V17.68H218.389ZM226.184 17.68V16H231.944V17.68H226.184ZM233.979 17.68V16H239.739V17.68H233.979ZM241.775 17.68V16H247.535V17.68H241.775ZM265.161 17.68V16H270.921V17.68H265.161ZM272.956 17.68V16H278.716V17.68H272.956ZM280.751 17.68V16H286.511V17.68H280.751ZM288.547 17.68V16H294.307V17.68H288.547ZM311.813 17.02L315.953 5.74H317.813L313.673 17.02H311.813ZM327.403 17.02L331.543 5.74H333.403L329.263 17.02H327.403ZM335.318 17.68V16H341.078V17.68H335.318ZM342.994 17.02L347.134 5.74H348.994L344.854 17.02H342.994ZM358.584 17.02L362.724 5.74H364.584L360.444 17.02H358.584ZM366.5 17.68V16H372.26V17.68H366.5ZM390.481 17.68V16H403.441V17.68H390.481ZM428.862 17.68V16H434.622V17.68H428.862ZM436.658 17.68V16H442.418V17.68H436.658ZM444.453 17.68V16H450.213V17.68H444.453ZM452.248 17.68V16H458.008V17.68H452.248ZM467.839 17.68V16H473.599V17.68H467.839ZM475.634 17.68V16H481.394V17.68H475.634ZM483.429 17.68V16H489.189V17.68H483.429ZM491.225 17.68V16H496.985V17.68H491.225ZM499.02 17.68V16H504.78V17.68H499.02ZM506.815 17.68V16H512.575V17.68H506.815ZM514.491 17.02L518.631 5.74H520.491L516.351 17.02H514.491ZM530.081 17.02L534.221 5.74H536.081L531.941 17.02H530.081ZM537.997 17.68V16H543.757V17.68H537.997ZM545.792 17.68V16H551.552V17.68H545.792ZM553.587 17.68V16H559.347V17.68H553.587ZM561.383 17.68V16H567.143V17.68H561.383ZM569.178 17.68V16H574.938V17.68H569.178ZM592.564 17.68V16H598.324V17.68H592.564ZM600.359 17.68V16H606.119V17.68H600.359ZM608.154 17.68V16H613.914V17.68H608.154ZM615.95 17.68V16H621.71V17.68H615.95ZM623.625 17.02L627.765 5.74H629.625L625.485 17.02H623.625ZM639.216 17.02L643.356 5.74H645.216L641.076 17.02H639.216ZM15.5906 33.02L19.7306 21.74H21.5906L17.4506 33.02H15.5906ZM31.1813 33.02L35.3213 21.74H37.1813L33.0413 33.02H31.1813ZM39.0966 33.68V32H44.8566V33.68H39.0966ZM46.7719 33.02L50.9119 21.74H52.7719L48.6319 33.02H46.7719ZM62.4825 33.68V32H68.2425V33.68H62.4825ZM70.2778 33.68V32H76.0378V33.68H70.2778ZM78.0731 33.68V32H83.8331V33.68H78.0731ZM85.7485 33.02L89.8885 21.74H91.7485L87.6085 33.02H85.7485ZM101.459 33.68V32H107.219V33.68H101.459ZM123.105 33.02L118.977 21.74H120.837L123.765 29.828L124.125 31.052L124.485 29.828L127.377 21.74H129.273L125.145 33.02H123.105ZM141.031 33.68V32H153.991V33.68H141.031ZM166.066 23.96L164.662 22.28H166.642L167.902 23.96H166.066ZM171.497 33.02L175.637 21.74H177.497L173.357 33.02H171.497ZM187.088 33.02L191.228 21.74H193.088L188.948 33.02H187.088ZM202.678 33.02L206.818 21.74H208.678L204.538 33.02H202.678ZM218.269 33.02L222.409 21.74H224.269L220.129 33.02H218.269ZM233.979 33.68V32H239.739V33.68H233.979ZM255.625 33.02L251.497 21.74H253.357L256.285 29.828L256.645 31.052L257.005 29.828L259.897 21.74H261.793L257.665 33.02H255.625ZM273.551 33.68V32H286.511V33.68H273.551ZM302.397 33.02L298.269 21.74H300.129L303.057 29.828L303.417 31.052L303.777 29.828L306.669 21.74H308.565L304.437 33.02H302.397ZM320.323 33.68V32H333.283V33.68H320.323ZM335.198 33.02L339.338 21.74H341.198L337.058 33.02H335.198ZM350.789 33.02L354.929 21.74H356.789L352.649 33.02H350.789ZM366.38 33.02L370.52 21.74H372.38L368.24 33.02H366.38ZM381.97 33.02L386.11 21.74H387.97L383.83 33.02H381.97ZM397.561 33.02L401.701 21.74H403.561L399.421 33.02H397.561ZM420.947 33.02L425.087 21.74H426.947L422.807 33.02H420.947ZM437.253 33.68V32H450.213V33.68H437.253ZM462.287 23.96L460.883 22.28H462.863L464.123 23.96H462.287ZM467.719 33.02L471.859 21.74H473.719L469.579 33.02H467.719ZM483.429 33.68V32H489.189V33.68H483.429ZM491.225 33.68V32H496.985V33.68H491.225ZM499.02 33.68V32H504.78V33.68H499.02ZM506.695 33.02L510.835 21.74H512.695L508.555 33.02H506.695ZM529.181 33.02L533.321 21.74H535.181L531.041 33.02H529.181ZM523.781 33.02L527.921 21.74H529.781L525.641 33.02H523.781ZM537.997 33.68V32H543.757V33.68H537.997ZM545.672 33.02L549.812 21.74H551.672L547.532 33.02H545.672ZM561.383 33.68V32H567.143V33.68H561.383ZM583.028 33.02L578.9 21.74H580.76L583.688 29.828L584.048 31.052L584.408 29.828L587.3 21.74H589.196L585.068 33.02H583.028ZM600.954 33.68V32H613.914V33.68H600.954ZM631.42 33.02L635.56 21.74H637.42L633.28 33.02H631.42ZM7.79534 49.02L11.9353 37.74H13.7953L9.65534 49.02H7.79534ZM24.1013 49.68V48H37.0613V49.68H24.1013ZM38.9766 49.02L43.1166 37.74H44.9766L40.8366 49.02H38.9766ZM54.5672 49.02L58.7072 37.74H60.5672L56.4272 49.02H54.5672ZM77.9531 49.02L82.0931 37.74H83.9531L79.8131 49.02H77.9531ZM102.054 49.68V48H115.014V49.68H102.054ZM116.93 49.02L121.07 37.74H122.93L118.79 49.02H116.93ZM132.52 49.02L136.66 37.74H138.52L134.38 49.02H132.52ZM140.436 49.68V48H146.196V49.68H140.436ZM148.111 49.02L152.251 37.74H154.111L149.971 49.02H148.111ZM163.702 49.02L167.842 37.74H169.702L165.562 49.02H163.702ZM179.292 49.02L183.432 37.74H185.292L181.152 49.02H179.292ZM187.208 49.68V48H192.968V49.68H187.208ZM194.883 49.02L199.023 37.74H200.883L196.743 49.02H194.883ZM210.473 49.02L214.613 37.74H216.473L212.333 49.02H210.473ZM234.575 49.68V48H247.535V49.68H234.575ZM249.45 49.02L253.59 37.74H255.45L251.31 49.02H249.45ZM265.041 49.02L269.181 37.74H271.041L266.901 49.02H265.041ZM280.631 49.02L284.771 37.74H286.631L282.491 49.02H280.631ZM296.222 49.02L300.362 37.74H302.222L298.082 49.02H296.222ZM311.813 49.02L315.953 37.74H317.813L313.673 49.02H311.813ZM319.728 49.68V48H325.488V49.68H319.728ZM327.403 49.02L331.543 37.74H333.403L329.263 49.02H327.403ZM342.994 49.02L347.134 37.74H348.994L344.854 49.02H342.994ZM358.584 49.02L362.724 37.74H364.584L360.444 49.02H358.584ZM366.5 49.68V48H372.26V49.68H366.5ZM374.175 49.02L378.315 37.74H380.175L376.035 49.02H374.175ZM389.766 49.02L393.906 37.74H395.766L391.626 49.02H389.766ZM413.152 49.02L417.292 37.74H419.152L415.012 49.02H413.152ZM428.742 49.02L432.882 37.74H434.742L430.602 49.02H428.742ZM436.658 49.68V48H442.418V49.68H436.658ZM444.333 49.02L448.473 37.74H450.333L446.193 49.02H444.333ZM465.143 49.14C463.887 48.844 462.911 48.284 462.215 47.46C461.527 46.628 461.183 45.62 461.183 44.436V42.3C461.183 41.116 461.527 40.116 462.215 39.3C462.911 38.484 463.887 37.924 465.143 37.62V39.42C464.479 39.572 463.951 39.908 463.559 40.428C463.175 40.94 462.983 41.564 462.983 42.3V44.436C462.983 45.164 463.175 45.788 463.559 46.308C463.951 46.82 464.479 47.156 465.143 47.316V49.14ZM468.434 49.68V48H481.394V49.68H468.434ZM499.68 49.14V47.316C500.344 47.156 500.868 46.82 501.252 46.308C501.644 45.788 501.84 45.164 501.84 44.436V42.3C501.84 41.564 501.644 40.94 501.252 40.428C500.868 39.908 500.344 39.572 499.68 39.42V37.62C500.944 37.924 501.92 38.484 502.608 39.3C503.296 40.116 503.64 41.116 503.64 42.3V44.436C503.64 45.62 503.296 46.628 502.608 47.46C501.92 48.284 500.944 48.844 499.68 49.14ZM515.991 49.62L516.615 45.948H518.631L517.671 49.62H515.991ZM528.046 47.112L522.526 44.616V42.9L528.046 40.392V42.024L524.734 43.476C524.574 43.548 524.406 43.608 524.23 43.656C524.054 43.704 523.914 43.736 523.81 43.752C523.914 43.768 524.054 43.8 524.23 43.848C524.406 43.888 524.574 43.944 524.734 44.016L528.046 45.468V47.112ZM537.877 49.02L542.017 37.74H543.877L539.737 49.02H537.877ZM561.978 49.68V48H574.938V49.68H561.978ZM576.853 49.02L580.993 37.74H582.853L578.713 49.02H576.853ZM592.444 49.02L596.584 37.74H598.444L594.304 49.02H592.444ZM600.359 49.68V48H606.119V49.68H600.359ZM608.034 49.02L612.174 37.74H614.034L609.894 49.02H608.034ZM623.625 49.02L627.765 37.74H629.625L625.485 49.02H623.625ZM2.4423e-05 65.02L4.14002 53.74H6.00002L1.86002 65.02H2.4423e-05ZM7.91534 65.68V64H13.6753V65.68H7.91534ZM15.5906 65.02L19.7306 53.74H21.5906L17.4506 65.02H15.5906ZM31.1813 65.02L35.3213 53.74H37.1813L33.0413 65.02H31.1813ZM39.0966 65.68V64H44.8566V65.68H39.0966ZM46.7719 65.02L50.9119 53.74H52.7719L48.6319 65.02H46.7719ZM82.0811 65.02L77.9411 53.74H79.8011L83.9411 65.02H82.0811ZM85.8685 65.68V64H91.6285V65.68H85.8685ZM93.6638 65.68V64H99.4238V65.68H93.6638ZM101.459 65.68V64H107.219V65.68H101.459ZM109.134 65.02L113.274 53.74H115.134L110.994 65.02H109.134ZM121.058 65.02L116.918 53.74H118.778L122.918 65.02H121.058ZM125.44 65.68V64H138.4V65.68H125.44ZM141.816 65.62L142.44 61.948H144.456L143.496 65.62H141.816ZM155.906 65.02L160.046 53.74H161.906L157.766 65.02H155.906ZM167.83 65.02L163.69 53.74H165.55L169.69 65.02H167.83ZM172.212 65.68V64H185.172V65.68H172.212ZM188.588 65.62L189.212 61.948H191.228L190.268 65.62H188.588ZM195.003 65.68V64H200.763V65.68H195.003ZM202.678 65.02L206.818 53.74H208.678L204.538 65.02H202.678ZM214.601 65.02L210.461 53.74H212.321L216.461 65.02H214.601ZM218.389 65.68V64H224.149V65.68H218.389ZM226.184 65.68V64H231.944V65.68H226.184ZM233.979 65.68V64H239.739V65.68H233.979ZM241.655 65.02L245.795 53.74H247.655L243.515 65.02H241.655ZM249.57 65.68V64H255.33V65.68H249.57ZM257.245 65.02L261.385 53.74H263.245L259.105 65.02H257.245ZM272.836 65.02L276.976 53.74H278.836L274.696 65.02H272.836ZM280.751 65.68V64H286.511V65.68H280.751ZM288.427 65.02L292.567 53.74H294.427L290.287 65.02H288.427ZM300.35 65.02L296.21 53.74H298.07L302.21 65.02H300.35ZM304.733 65.68V64H317.693V65.68H304.733ZM319.608 65.02L323.748 53.74H325.608L321.468 65.02H319.608ZM327.523 65.68V64H333.283V65.68H327.523ZM335.198 65.02L339.338 53.74H341.198L337.058 65.02H335.198ZM347.122 65.02L342.982 53.74H344.842L348.982 65.02H347.122ZM351.504 65.68V64H364.464V65.68H351.504ZM367.88 65.62L368.504 61.948H370.52L369.56 65.62H367.88ZM381.97 65.02L386.11 53.74H387.97L383.83 65.02H381.97ZM417.28 65.02L413.14 53.74H415L419.14 65.02H417.28ZM421.662 65.68V64H434.622V65.68H421.662ZM438.038 65.62L438.662 61.948H440.678L439.718 65.62H438.038ZM444.453 65.68V64H450.213V65.68H444.453ZM452.128 65.02L456.268 53.74H458.128L453.988 65.02H452.128ZM460.043 65.68V64H465.803V65.68H460.043ZM467.839 65.68V64H473.599V65.68H467.839ZM475.634 65.68V64H481.394V65.68H475.634ZM483.429 65.68V64H489.189V65.68H483.429ZM491.105 65.02L495.245 53.74H497.105L492.965 65.02H491.105ZM499.02 65.68V64H504.78V65.68H499.02ZM506.695 65.02L510.835 53.74H512.695L508.555 65.02H506.695ZM516.591 65.02V53.74H518.391V65.02H516.591ZM522.406 65.68V64H528.166V65.68H522.406ZM532.181 65.02V53.74H533.981V65.02H532.181ZM542.005 65.02L537.865 53.74H539.725L543.865 65.02H542.005ZM545.792 65.68V64H551.552V65.68H545.792ZM553.587 65.68V64H559.347V65.68H553.587ZM561.383 65.68V64H567.143V65.68H561.383ZM569.058 65.02L573.198 53.74H575.058L570.918 65.02H569.058ZM580.981 65.02L576.841 53.74H578.701L582.841 65.02H580.981ZM585.364 65.68V64H598.324V65.68H585.364ZM601.739 65.62L602.363 61.948H604.379L603.419 65.62H601.739ZM608.154 65.68V64H613.914V65.68H608.154ZM615.83 65.02L619.97 53.74H621.83L617.69 65.02H615.83ZM132.52 81.02L136.66 69.74H138.52L134.38 81.02H132.52ZM140.436 81.68V80H146.196V81.68H140.436ZM148.111 81.02L152.251 69.74H154.111L149.971 81.02H148.111ZM156.026 81.68V80H161.786V81.68H156.026ZM163.822 81.68V80H169.582V81.68H163.822ZM171.617 81.68V80H177.377V81.68H171.617ZM179.412 81.68V80H185.172V81.68H179.412ZM195.003 81.68V80H200.763V81.68H195.003ZM202.798 81.68V80H208.558V81.68H202.798ZM210.593 81.68V80H216.353V81.68H210.593ZM233.979 81.68V80H239.739V81.68H233.979ZM241.775 81.68V80H247.535V81.68H241.775ZM249.57 81.68V80H255.33V81.68H249.57ZM257.365 81.68V80H263.125V81.68H257.365ZM265.161 81.68V80H270.921V81.68H265.161ZM288.427 81.02L292.567 69.74H294.427L290.287 81.02H288.427ZM304.017 81.02L308.157 69.74H310.017L305.877 81.02H304.017ZM311.933 81.68V80H317.693V81.68H311.933ZM324.828 81.14C323.572 80.844 322.596 80.284 321.9 79.46C321.212 78.628 320.868 77.62 320.868 76.436V74.3C320.868 73.116 321.212 72.116 321.9 71.3C322.596 70.484 323.572 69.924 324.828 69.62V71.42C324.164 71.572 323.636 71.908 323.244 72.428C322.86 72.94 322.668 73.564 322.668 74.3V76.436C322.668 77.164 322.86 77.788 323.244 78.308C323.636 78.82 324.164 79.156 324.828 79.316V81.14ZM327.523 81.68V80H333.283V81.68H327.523ZM335.978 81.14V79.316C336.642 79.156 337.166 78.82 337.55 78.308C337.942 77.788 338.138 77.164 338.138 76.436V74.3C338.138 73.564 337.942 72.94 337.55 72.428C337.166 71.908 336.642 71.572 335.978 71.42V69.62C337.242 69.924 338.218 70.484 338.906 71.3C339.594 72.116 339.938 73.116 339.938 74.3V76.436C339.938 77.62 339.594 78.628 338.906 79.46C338.218 80.284 337.242 80.844 335.978 81.14ZM343.114 81.68V80H348.874V81.68H343.114ZM350.909 81.68V80H356.669V81.68H350.909ZM358.704 81.68V80H364.464V81.68H358.704ZM366.5 81.68V80H372.26V81.68H366.5ZM374.175 81.02L378.315 69.74H380.175L376.035 81.02H374.175ZM382.09 81.68V80H387.85V81.68H382.09ZM389.886 81.68V80H395.646V81.68H389.886ZM397.681 81.68V80H403.441V81.68H397.681ZM405.476 81.68V80H411.236V81.68H405.476ZM428.862 81.68V80H434.622V81.68H428.862ZM436.658 81.68V80H442.418V81.68H436.658ZM444.453 81.68V80H450.213V81.68H444.453ZM452.248 81.68V80H458.008V81.68H452.248ZM460.043 81.68V80H465.803V81.68H460.043ZM148.111 97.02L152.251 85.74H154.111L149.971 97.02H148.111ZM164.417 97.68V96H177.377V97.68H164.417ZM189.452 87.96L188.048 86.28H190.028L191.288 87.96H189.452ZM194.883 97.02L199.023 85.74H200.883L196.743 97.02H194.883ZM210.473 97.02L214.613 85.74H216.473L212.333 97.02H210.473ZM226.064 97.02L230.204 85.74H232.064L227.924 97.02H226.064ZM241.655 97.02L245.795 85.74H247.655L243.515 97.02H241.655ZM257.365 97.68V96H263.125V97.68H257.365ZM279.011 97.02L274.883 85.74H276.743L279.671 93.828L280.031 95.052L280.391 93.828L283.283 85.74H285.179L281.051 97.02H279.011ZM296.937 97.68V96H309.897V97.68H296.937ZM311.813 97.02L315.953 85.74H317.813L313.673 97.02H311.813ZM327.403 97.02L331.543 85.74H333.403L329.263 97.02H327.403ZM343.709 97.68V96H356.669V97.68H343.709ZM372.555 97.02L368.427 85.74H370.287L373.215 93.828L373.575 95.052L373.935 93.828L376.827 85.74H378.723L374.595 97.02H372.555ZM390.481 97.68V96H403.441V97.68H390.481ZM419.327 97.02L415.199 85.74H417.059L419.987 93.828L420.347 95.052L420.707 93.828L423.599 85.74H425.495L421.367 97.02H419.327ZM436.658 97.68V96H442.418V97.68H436.658ZM444.453 97.68V96H450.213V97.68H444.453ZM452.248 97.68V96H458.008V97.68H452.248ZM459.923 97.02L464.063 85.74H465.923L461.783 97.02H459.923ZM140.316 113.02L144.456 101.74H146.316L142.176 113.02H140.316ZM155.906 113.02L160.046 101.74H161.906L157.766 113.02H155.906ZM163.822 113.68V112H169.582V113.68H163.822ZM171.497 113.02L175.637 101.74H177.497L173.357 113.02H171.497ZM187.088 113.02L191.228 101.74H193.088L188.948 113.02H187.088ZM202.678 113.02L206.818 101.74H208.678L204.538 113.02H202.678ZM210.593 113.68V112H216.353V113.68H210.593ZM218.269 113.02L222.409 101.74H224.269L220.129 113.02H218.269ZM233.859 113.02L237.999 101.74H239.859L235.719 113.02H233.859ZM257.961 113.68V112H270.921V113.68H257.961ZM272.836 113.02L276.976 101.74H278.836L274.696 113.02H272.836ZM288.427 113.02L292.567 101.74H294.427L290.287 113.02H288.427ZM296.342 113.68V112H302.102V113.68H296.342ZM304.017 113.02L308.157 101.74H310.017L305.877 113.02H304.017ZM319.608 113.02L323.748 101.74H325.608L321.468 113.02H319.608ZM335.198 113.02L339.338 101.74H341.198L337.058 113.02H335.198ZM343.114 113.68V112H348.874V113.68H343.114ZM350.789 113.02L354.929 101.74H356.789L352.649 113.02H350.789ZM366.38 113.02L370.52 101.74H372.38L368.24 113.02H366.38ZM381.97 113.02L386.11 101.74H387.97L383.83 113.02H381.97ZM397.561 113.02L401.701 101.74H403.561L399.421 113.02H397.561ZM418.372 113.14C417.116 112.844 416.14 112.284 415.444 111.46C414.756 110.628 414.412 109.62 414.412 108.436V106.3C414.412 105.116 414.756 104.116 415.444 103.3C416.14 102.484 417.116 101.924 418.372 101.62V103.42C417.708 103.572 417.18 103.908 416.788 104.428C416.404 104.94 416.212 105.564 416.212 106.3V108.436C416.212 109.164 416.404 109.788 416.788 110.308C417.18 110.82 417.708 111.156 418.372 111.316V113.14ZM421.662 113.68V112H434.622V113.68H421.662ZM452.908 113.14V111.316C453.572 111.156 454.096 110.82 454.48 110.308C454.872 109.788 455.068 109.164 455.068 108.436V106.3C455.068 105.564 454.872 104.94 454.48 104.428C454.096 103.908 453.572 103.572 452.908 103.42V101.62C454.172 101.924 455.148 102.484 455.836 103.3C456.524 104.116 456.868 105.116 456.868 106.3V108.436C456.868 109.62 456.524 110.628 455.836 111.46C455.148 112.284 454.172 112.844 452.908 113.14ZM144.444 129.02L140.304 117.74H142.164L146.304 129.02H144.444ZM148.826 129.68V128H161.786V129.68H148.826ZM165.202 129.62L165.826 125.948H167.842L166.882 129.62H165.202ZM179.292 129.02L183.432 117.74H185.292L181.152 129.02H179.292ZM191.216 129.02L187.076 117.74H188.936L193.076 129.02H191.216ZM195.598 129.68V128H208.558V129.68H195.598ZM211.973 129.62L212.597 125.948H214.613L213.653 129.62H211.973ZM218.389 129.68V128H224.149V129.68H218.389ZM226.064 129.02L230.204 117.74H232.064L227.924 129.02H226.064ZM237.987 129.02L233.847 117.74H235.707L239.847 129.02H237.987ZM241.775 129.68V128H247.535V129.68H241.775ZM249.57 129.68V128H255.33V129.68H249.57ZM257.365 129.68V128H263.125V129.68H257.365ZM265.041 129.02L269.181 117.74H271.041L266.901 129.02H265.041ZM276.964 129.02L272.824 117.74H274.684L278.824 129.02H276.964ZM281.347 129.68V128H294.307V129.68H281.347ZM296.222 129.02L300.362 117.74H302.222L298.082 129.02H296.222ZM304.137 129.68V128H309.897V129.68H304.137ZM311.813 129.02L315.953 117.74H317.813L313.673 129.02H311.813ZM323.736 129.02L319.596 117.74H321.456L325.596 129.02H323.736ZM327.523 129.68V128H333.283V129.68H327.523ZM335.318 129.68V128H341.078V129.68H335.318ZM343.114 129.68V128H348.874V129.68H343.114ZM350.909 129.68V128H356.669V129.68H350.909ZM358.584 129.02L362.724 117.74H364.584L360.444 129.02H358.584ZM366.5 129.68V128H372.26V129.68H366.5ZM374.175 129.02L378.315 117.74H380.175L376.035 129.02H374.175ZM389.766 129.02L393.906 117.74H395.766L391.626 129.02H389.766ZM397.681 129.68V128H403.441V129.68H397.681ZM405.356 129.02L409.496 117.74H411.356L407.216 129.02H405.356ZM413.272 129.68V128H419.032V129.68H413.272ZM421.067 129.68V128H426.827V129.68H421.067ZM428.862 129.68V128H434.622V129.68H428.862ZM436.658 129.68V128H442.418V129.68H436.658ZM444.333 129.02L448.473 117.74H450.333L446.193 129.02H444.333ZM155.906 145.02L160.046 133.74H161.906L157.766 145.02H155.906ZM163.822 145.68V144H169.582V145.68H163.822ZM171.497 145.02L175.637 133.74H177.497L173.357 145.02H171.497Z" fill="#3c412c" stroke-width="20"/>
</svg>
