<svg width="240" height="178" viewBox="0 0 240 178" fill="none" xmlns="http://www.w3.org/2000/svg">
<path d="M31.1812 1.356V-3.04729e-06H36.9412V1.356H31.1812ZM38.9766 1.356V-3.04729e-06H44.7366V1.356H38.9766ZM46.7719 1.356V-3.04729e-06H52.5319V1.356H46.7719ZM54.5672 1.356V-3.04729e-06H60.3272V1.356H54.5672ZM23.3859 17.02L27.5859 5.74H29.1459L24.9459 17.02H23.3859ZM39.5719 17.356V16H52.5319V17.356H39.5719ZM54.5672 17.02L58.7672 5.74H60.3272L56.1272 17.02H54.5672ZM62.3625 17.356V16H68.1225V17.356H62.3625ZM70.1578 17.356V16H75.9178V17.356H70.1578ZM77.9531 17.356V16H83.7131V17.356H77.9531ZM85.7484 17.356V16H91.5084V17.356H85.7484ZM93.5437 17.356V16H99.3037V17.356H93.5437ZM101.339 17.356V16H107.099V17.356H101.339ZM109.134 17.356V16H114.894V17.356H109.134ZM15.5906 33.02L19.7906 21.74H21.3506L17.1506 33.02H15.5906ZM31.1812 33.02L35.3812 21.74H36.9412L32.7412 33.02H31.1812ZM38.9766 33.356V32H44.7366V33.356H38.9766ZM46.7719 33.02L50.9719 21.74H52.5319L48.3319 33.02H46.7719ZM62.3625 33.356V32H68.1225V33.356H62.3625ZM70.1578 33.356V32H75.9178V33.356H70.1578ZM77.9531 33.356V32H83.7131V33.356H77.9531ZM85.7484 33.02L89.9484 21.74H91.5084L87.3084 33.02H85.7484ZM101.339 33.356V32H107.099V33.356H101.339ZM121.118 33.02L116.93 21.74H118.49L122.678 33.02H121.118ZM7.79531 49.02L11.9953 37.74H13.5553L9.35531 49.02H7.79531ZM23.9812 49.356V48H36.9412V49.356H23.9812ZM38.9766 49.02L43.1766 37.74H44.7366L40.5366 49.02H38.9766ZM54.5672 49.02L58.7672 37.74H60.3272L56.1272 49.02H54.5672ZM77.9531 49.02L82.1531 37.74H83.7131L79.5131 49.02H77.9531ZM101.934 49.356V48H114.894V49.356H101.934ZM116.93 49.02L121.13 37.74H122.69L118.49 49.02H116.93ZM-1.19209e-06 65.02L4.2 53.74H5.76L1.56 65.02H-1.19209e-06ZM7.79531 65.356V64H13.5553V65.356H7.79531ZM15.5906 65.02L19.7906 53.74H21.3506L17.1506 65.02H15.5906ZM31.1812 65.02L35.3812 53.74H36.9412L32.7412 65.02H31.1812ZM38.9766 65.356V64H44.7366V65.356H38.9766ZM46.7719 65.02L50.9719 53.74H52.5319L48.3319 65.02H46.7719ZM62.9578 65.356V64H75.9178V65.356H62.9578ZM82.1411 65.02L77.9531 53.74H79.5131L83.7011 65.02H82.1411ZM85.7484 65.356V64H91.5084V65.356H85.7484ZM93.5437 65.356V64H99.3037V65.356H93.5437ZM101.339 65.356V64H107.099V65.356H101.339ZM109.134 65.02L113.334 53.74H114.894L110.694 65.02H109.134ZM116.93 65.356V64H122.69V65.356H116.93ZM140.316 65.356V64H146.076V65.356H140.316ZM148.111 65.356V64H153.871V65.356H148.111ZM155.906 65.356V64H161.666V65.356H155.906ZM163.702 65.356V64H169.462V65.356H163.702ZM171.497 65.356V64H177.257V65.356H171.497ZM194.883 65.356V64H200.643V65.356H194.883ZM202.678 65.356V64H208.438V65.356H202.678ZM210.473 65.356V64H216.233V65.356H210.473ZM218.269 65.356V64H224.029V65.356H218.269ZM54.5672 81.02L58.7672 69.74H60.3272L56.1272 81.02H54.5672ZM70.7531 81.356V80H83.7131V81.356H70.7531ZM95.9317 71.96L94.5397 70.28H96.1957L97.4797 71.96H95.9317ZM101.339 81.02L105.539 69.74H107.099L102.899 81.02H101.339ZM116.93 81.02L121.13 69.74H122.69L118.49 81.02H116.93ZM132.52 81.02L136.72 69.74H138.28L134.08 81.02H132.52ZM148.111 81.02L152.311 69.74H153.871L149.671 81.02H148.111ZM163.702 81.356V80H169.462V81.356H163.702ZM185.491 81.02L181.315 69.74H182.875L186.043 78.344L186.367 79.4L186.691 78.344L189.835 69.74H191.419L187.243 81.02H185.491ZM203.273 81.356V80H216.233V81.356H203.273ZM230.252 81.02L226.064 69.74H227.624L231.812 81.02H230.252ZM46.7719 97.02L50.9719 85.74H52.5319L48.3319 97.02H46.7719ZM62.3625 97.02L66.5625 85.74H68.1225L63.9225 97.02H62.3625ZM70.1578 97.356V96H75.9178V97.356H70.1578ZM77.9531 97.02L82.1531 85.74H83.7131L79.5131 97.02H77.9531ZM93.5437 97.02L97.7437 85.74H99.3037L95.1037 97.02H93.5437ZM109.134 97.02L113.334 85.74H114.894L110.694 97.02H109.134ZM116.93 97.356V96H122.69V97.356H116.93ZM124.725 97.02L128.925 85.74H130.485L126.285 97.02H124.725ZM140.316 97.02L144.516 85.74H146.076L141.876 97.02H140.316ZM164.297 97.356V96H177.257V97.356H164.297ZM179.292 97.02L183.492 85.74H185.052L180.852 97.02H179.292ZM194.883 97.02L199.083 85.74H200.643L196.443 97.02H194.883ZM210.473 97.02L214.673 85.74H216.233L212.033 97.02H210.473ZM226.064 97.02L230.264 85.74H231.824L227.624 97.02H226.064ZM50.9599 113.02L46.7719 101.74H48.3319L52.5199 113.02H50.9599ZM55.1625 113.356V112H68.1225V113.356H55.1625ZM71.7178 113.62L72.3538 109.948H74.0698L73.1578 113.62H71.7178ZM85.7484 113.02L89.9484 101.74H91.5084L87.3084 113.02H85.7484ZM97.7317 113.02L93.5437 101.74H95.1037L99.2917 113.02H97.7317ZM101.934 113.356V112H114.894V113.356H101.934ZM118.49 113.62L119.126 109.948H120.842L119.93 113.62H118.49ZM124.725 113.356V112H130.485V113.356H124.725ZM132.52 113.02L136.72 101.74H138.28L134.08 113.02H132.52ZM144.504 113.02L140.316 101.74H141.876L146.064 113.02H144.504ZM148.111 113.356V112H153.871V113.356H148.111ZM155.906 113.356V112H161.666V113.356H155.906ZM163.702 113.356V112H169.462V113.356H163.702ZM171.497 113.02L175.697 101.74H177.257L173.057 113.02H171.497ZM179.292 113.356V112H185.052V113.356H179.292ZM187.087 113.02L191.287 101.74H192.847L188.647 113.02H187.087ZM194.883 113.356V112H200.643V113.356H194.883ZM202.678 113.02L206.878 101.74H208.438L204.238 113.02H202.678ZM210.473 113.356V112H216.233V113.356H210.473ZM218.269 113.02L222.469 101.74H224.029L219.829 113.02H218.269ZM226.659 113.356V112H239.619V113.356H226.659ZM62.3625 129.02L66.5625 117.74H68.1225L63.9225 129.02H62.3625ZM70.1578 129.356V128H75.9178V129.356H70.1578ZM77.9531 129.02L82.1531 117.74H83.7131L79.5131 129.02H77.9531ZM148.111 129.02L152.311 117.74H153.871L149.671 129.02H148.111ZM163.702 129.356V128H169.462V129.356H163.702ZM171.497 129.356V128H177.257V129.356H171.497ZM179.292 129.356V128H185.052V129.356H179.292ZM187.087 129.02L191.287 117.74H192.847L188.647 129.02H187.087ZM202.678 129.02L206.878 117.74H208.438L204.238 129.02H202.678ZM218.269 129.02L222.469 117.74H224.029L219.829 129.02H218.269ZM233.859 129.02L238.059 117.74H239.619L235.419 129.02H233.859ZM140.316 145.02L144.516 133.74H146.076L141.876 145.02H140.316ZM155.906 145.02L160.106 133.74H161.666L157.466 145.02H155.906ZM164.297 145.356V144H177.257V145.356H164.297ZM179.292 145.02L183.492 133.74H185.052L180.852 145.02H179.292ZM194.883 145.02L199.083 133.74H200.643L196.443 145.02H194.883ZM202.678 145.356V144H208.438V145.356H202.678ZM210.473 145.02L214.673 133.74H216.233L212.033 145.02H210.473ZM226.064 145.02L230.264 133.74H231.824L227.624 145.02H226.064ZM144.504 161.02L140.316 149.74H141.876L146.064 161.02H144.504ZM148.111 161.356V160H153.871V161.356H148.111ZM155.906 161.356V160H161.666V161.356H155.906ZM163.702 161.356V160H169.462V161.356H163.702ZM171.497 161.02L175.697 149.74H177.257L173.057 161.02H171.497ZM183.48 161.02L179.292 149.74H180.852L185.04 161.02H183.48ZM187.683 161.356V160H200.643V161.356H187.683ZM204.238 161.62L204.874 157.948H206.59L205.678 161.62H204.238ZM218.269 161.02L222.469 149.74H224.029L219.829 161.02H218.269ZM171.497 177.02L175.697 165.74H177.257L173.057 177.02H171.497ZM179.292 177.356V176H185.052V177.356H179.292ZM187.087 177.356V176H192.847V177.356H187.087ZM194.883 177.356V176H200.643V177.356H194.883ZM202.678 177.356V176H208.438V177.356H202.678ZM210.473 177.02L214.673 165.74H216.233L212.033 177.02H210.473Z" fill="#3C412C" stroke="#3C412C" stroke-width="1.2"/>
</svg>
