<svg width="256" height="82" viewBox="0 0 256 82" fill="none" xmlns="http://www.w3.org/2000/svg">
<path d="M124.845 1.68V-3.04729e-06H130.605V1.68H124.845ZM172.212 1.68V-3.04729e-06H185.172V1.68H172.212ZM23.506 17.68V16H29.266V17.68H23.506ZM31.3013 17.68V16H37.0613V17.68H31.3013ZM39.0966 17.68V16H44.8566V17.68H39.0966ZM46.8919 17.68V16H52.6519V17.68H46.8919ZM62.4825 17.68V16H68.2425V17.68H62.4825ZM70.2778 17.68V16H76.0378V17.68H70.2778ZM78.0731 17.68V16H83.8331V17.68H78.0731ZM102.054 17.68V16H115.014V17.68H102.054ZM122.15 17.14C120.894 16.844 119.918 16.284 119.222 15.46C118.534 14.628 118.19 13.62 118.19 12.436V10.3C118.19 9.116 118.534 8.116 119.222 7.3C119.918 6.484 120.894 5.924 122.15 5.62V7.42C121.486 7.572 120.958 7.908 120.566 8.428C120.182 8.94 119.99 9.564 119.99 10.3V12.436C119.99 13.164 120.182 13.788 120.566 14.308C120.958 14.82 121.486 15.156 122.15 15.316V17.14ZM124.845 17.68V16H130.605V17.68H124.845ZM133.3 17.14V15.316C133.964 15.156 134.488 14.82 134.872 14.308C135.264 13.788 135.46 13.164 135.46 12.436V10.3C135.46 9.564 135.264 8.94 134.872 8.428C134.488 7.908 133.964 7.572 133.3 7.42V5.62C134.564 5.924 135.54 6.484 136.228 7.3C136.916 8.116 137.26 9.116 137.26 10.3V12.436C137.26 13.62 136.916 14.628 136.228 15.46C135.54 16.284 134.564 16.844 133.3 17.14ZM140.436 17.68V16H146.196V17.68H140.436ZM148.231 17.68V16H153.991V17.68H148.231ZM156.026 17.68V16H161.786V17.68H156.026ZM163.702 17.02L167.842 5.74H169.702L165.562 17.02H163.702ZM179.292 17.02L183.432 5.74H185.292L181.152 17.02H179.292ZM187.803 17.68V16H200.763V17.68H187.803ZM218.389 17.68V16H224.149V17.68H218.389ZM226.184 17.68V16H231.944V17.68H226.184ZM233.979 17.68V16H239.739V17.68H233.979ZM241.775 17.68V16H247.535V17.68H241.775ZM249.57 17.68V16H255.33V17.68H249.57ZM15.5906 33.02L19.7306 21.74H21.5906L17.4506 33.02H15.5906ZM31.8966 33.68V32H44.8566V33.68H31.8966ZM56.9312 23.96L55.5272 22.28H57.5072L58.7672 23.96H56.9312ZM62.3625 33.02L66.5025 21.74H68.3625L64.2225 33.02H62.3625ZM77.9531 33.02L82.0931 21.74H83.9531L79.8131 33.02H77.9531ZM93.5438 33.02L97.6838 21.74H99.5438L95.4038 33.02H93.5438ZM109.134 33.02L113.274 21.74H115.134L110.994 33.02H109.134ZM124.725 33.02L128.865 21.74H130.725L126.585 33.02H124.725ZM141.031 33.68V32H153.991V33.68H141.031ZM171.497 33.02L175.637 21.74H177.497L173.357 33.02H171.497ZM187.208 33.68V32H192.968V33.68H187.208ZM208.853 33.02L204.725 21.74H206.585L209.513 29.828L209.873 31.052L210.233 29.828L213.125 21.74H215.021L210.893 33.02H208.853ZM226.184 33.68V32H231.944V33.68H226.184ZM233.979 33.68V32H239.739V33.68H233.979ZM241.775 33.68V32H247.535V33.68H241.775ZM249.45 33.02L253.59 21.74H255.45L251.31 33.02H249.45ZM7.79534 49.02L11.9353 37.74H13.7953L9.65534 49.02H7.79534ZM23.386 49.02L27.526 37.74H29.386L25.246 49.02H23.386ZM31.3013 49.68V48H37.0613V49.68H31.3013ZM38.9766 49.02L43.1166 37.74H44.9766L40.8366 49.02H38.9766ZM54.5672 49.02L58.7072 37.74H60.5672L56.4272 49.02H54.5672ZM70.1578 49.02L74.2978 37.74H76.1578L72.0178 49.02H70.1578ZM78.0731 49.68V48H83.8331V49.68H78.0731ZM85.7485 49.02L89.8885 37.74H91.7485L87.6085 49.02H85.7485ZM101.339 49.02L105.479 37.74H107.339L103.199 49.02H101.339ZM116.93 49.02L121.07 37.74H122.93L118.79 49.02H116.93ZM132.52 49.02L136.66 37.74H138.52L134.38 49.02H132.52ZM140.436 49.68V48H146.196V49.68H140.436ZM148.111 49.02L152.251 37.74H154.111L149.971 49.02H148.111ZM163.702 49.02L167.842 37.74H169.702L165.562 49.02H163.702ZM187.803 49.68V48H200.763V49.68H187.803ZM207.898 49.14C206.642 48.844 205.666 48.284 204.97 47.46C204.282 46.628 203.938 45.62 203.938 44.436V42.3C203.938 41.116 204.282 40.116 204.97 39.3C205.666 38.484 206.642 37.924 207.898 37.62V39.42C207.234 39.572 206.706 39.908 206.314 40.428C205.93 40.94 205.738 41.564 205.738 42.3V44.436C205.738 45.164 205.93 45.788 206.314 46.308C206.706 46.82 207.234 47.156 207.898 47.316V49.14ZM211.189 49.68V48H224.149V49.68H211.189ZM242.435 49.14V47.316C243.099 47.156 243.623 46.82 244.007 46.308C244.399 45.788 244.595 45.164 244.595 44.436V42.3C244.595 41.564 244.399 40.94 244.007 40.428C243.623 39.908 243.099 39.572 242.435 39.42V37.62C243.699 37.924 244.675 38.484 245.363 39.3C246.051 40.116 246.395 41.116 246.395 42.3V44.436C246.395 45.62 246.051 46.628 245.363 47.46C244.675 48.284 243.699 48.844 242.435 49.14ZM11.9233 65.02L7.78334 53.74H9.64334L13.7833 65.02H11.9233ZM16.306 65.68V64H29.266V65.68H16.306ZM32.6813 65.62L33.3053 61.948H35.3213L34.3613 65.62H32.6813ZM46.7719 65.02L50.9119 53.74H52.7719L48.6319 65.02H46.7719ZM58.6952 65.02L54.5552 53.74H56.4152L60.5552 65.02H58.6952ZM63.0778 65.68V64H76.0378V65.68H63.0778ZM79.4531 65.62L80.0771 61.948H82.0931L81.1331 65.62H79.4531ZM85.8685 65.68V64H91.6285V65.68H85.8685ZM93.5438 65.02L97.6838 53.74H99.5438L95.4038 65.02H93.5438ZM101.459 65.68V64H107.219V65.68H101.459ZM109.134 65.02L113.274 53.74H115.134L110.994 65.02H109.134ZM121.058 65.02L116.918 53.74H118.778L122.918 65.02H121.058ZM125.44 65.68V64H138.4V65.68H125.44ZM141.816 65.62L142.44 61.948H144.456L143.496 65.62H141.816ZM148.231 65.68V64H153.991V65.68H148.231ZM155.906 65.02L160.046 53.74H161.906L157.766 65.02H155.906ZM167.83 65.02L163.69 53.74H165.55L169.69 65.02H167.83ZM171.617 65.68V64H177.377V65.68H171.617ZM179.412 65.68V64H185.172V65.68H179.412ZM187.208 65.68V64H192.968V65.68H187.208ZM194.883 65.02L199.023 53.74H200.883L196.743 65.02H194.883ZM202.798 65.68V64H208.558V65.68H202.798ZM210.593 65.68V64H216.353V65.68H210.593ZM218.389 65.68V64H224.149V65.68H218.389ZM226.184 65.68V64H231.944V65.68H226.184ZM233.859 65.02L237.999 53.74H239.859L235.719 65.02H233.859ZM2.4423e-05 81.02L4.14002 69.74H6.00002L1.86002 81.02H2.4423e-05ZM7.91534 81.68V80H13.6753V81.68H7.91534ZM15.7106 81.68V80H21.4706V81.68H15.7106ZM23.506 81.68V80H29.266V81.68H23.506ZM31.3013 81.68V80H37.0613V81.68H31.3013ZM38.9766 81.02L43.1166 69.74H44.9766L40.8366 81.02H38.9766Z" fill="#3c412c" stroke-width="2"/>
</svg>
