<svg width="194" height="82" viewBox="0 0 194 82" fill="none" xmlns="http://www.w3.org/2000/svg">
<path d="M70.8731 1.68V-3.04729e-06H83.8331V1.68H70.8731ZM23.506 17.68V16H29.266V17.68H23.506ZM31.3013 17.68V16H37.0613V17.68H31.3013ZM39.0966 17.68V16H44.8566V17.68H39.0966ZM46.8919 17.68V16H52.6519V17.68H46.8919ZM54.6872 17.68V16H60.4472V17.68H54.6872ZM62.3625 17.02L66.5025 5.74H68.3625L64.2225 17.02H62.3625ZM77.9531 17.02L82.0931 5.74H83.9531L79.8131 17.02H77.9531ZM85.8685 17.68V16H91.6285V17.68H85.8685ZM109.254 17.68V16H115.014V17.68H109.254ZM117.05 17.68V16H122.81V17.68H117.05ZM124.845 17.68V16H130.605V17.68H124.845ZM132.64 17.68V16H138.4V17.68H132.64ZM156.026 17.68V16H161.786V17.68H156.026ZM163.822 17.68V16H169.582V17.68H163.822ZM171.617 17.68V16H177.377V17.68H171.617ZM179.412 17.68V16H185.172V17.68H179.412ZM15.5906 33.02L19.7306 21.74H21.5906L17.4506 33.02H15.5906ZM31.3013 33.68V32H37.0613V33.68H31.3013ZM39.0966 33.68V32H44.8566V33.68H39.0966ZM46.8919 33.68V32H52.6519V33.68H46.8919ZM54.5672 33.02L58.7072 21.74H60.5672L56.4272 33.02H54.5672ZM70.8731 33.68V32H83.8331V33.68H70.8731ZM99.7191 33.02L95.5911 21.74H97.4511L100.379 29.828L100.739 31.052L101.099 29.828L103.991 21.74H105.887L101.759 33.02H99.7191ZM117.645 33.68V32H130.605V33.68H117.645ZM146.491 33.02L142.363 21.74H144.223L147.151 29.828L147.511 31.052L147.871 29.828L150.763 21.74H152.659L148.531 33.02H146.491ZM164.417 33.68V32H177.377V33.68H164.417ZM191.216 33.02L187.076 21.74H188.936L193.076 33.02H191.216ZM13.0153 49.14C11.7593 48.844 10.7833 48.284 10.0873 47.46C9.39934 46.628 9.05534 45.62 9.05534 44.436V42.3C9.05534 41.116 9.39934 40.116 10.0873 39.3C10.7833 38.484 11.7593 37.924 13.0153 37.62V39.42C12.3513 39.572 11.8233 39.908 11.4313 40.428C11.0473 40.94 10.8553 41.564 10.8553 42.3V44.436C10.8553 45.164 11.0473 45.788 11.4313 46.308C11.8233 46.82 12.3513 47.156 13.0153 47.316V49.14ZM16.306 49.68V48H29.266V49.68H16.306ZM47.5519 49.14V47.316C48.2159 47.156 48.7399 46.82 49.1239 46.308C49.5159 45.788 49.7119 45.164 49.7119 44.436V42.3C49.7119 41.564 49.5159 40.94 49.1239 40.428C48.7399 39.908 48.2159 39.572 47.5519 39.42V37.62C48.8159 37.924 49.7919 38.484 50.4799 39.3C51.1679 40.116 51.5119 41.116 51.5119 42.3V44.436C51.5119 45.62 51.1679 46.628 50.4799 47.46C49.7919 48.284 48.8159 48.844 47.5519 49.14ZM62.3625 49.02L66.5025 37.74H68.3625L64.2225 49.02H62.3625ZM77.9531 49.02L82.0931 37.74H83.9531L79.8131 49.02H77.9531ZM93.5438 49.02L97.6838 37.74H99.5438L95.4038 49.02H93.5438ZM109.134 49.02L113.274 37.74H115.134L110.994 49.02H109.134ZM117.05 49.68V48H122.81V49.68H117.05ZM124.725 49.02L128.865 37.74H130.725L126.585 49.02H124.725ZM140.316 49.02L144.456 37.74H146.316L142.176 49.02H140.316ZM155.906 49.02L160.046 37.74H161.906L157.766 49.02H155.906ZM163.822 49.68V48H169.582V49.68H163.822ZM171.497 49.02L175.637 37.74H177.497L173.357 49.02H171.497ZM187.088 49.02L191.228 37.74H193.088L188.948 49.02H187.088ZM2.4423e-05 65.02L4.14002 53.74H6.00002L1.86002 65.02H2.4423e-05ZM7.91534 65.68V64H13.6753V65.68H7.91534ZM15.7106 65.68V64H21.4706V65.68H15.7106ZM23.506 65.68V64H29.266V65.68H23.506ZM31.3013 65.68V64H37.0613V65.68H31.3013ZM38.9766 65.02L43.1166 53.74H44.9766L40.8366 65.02H38.9766ZM46.8919 65.68V64H52.6519V65.68H46.8919ZM54.5672 65.02L58.7072 53.74H60.5672L56.4272 65.02H54.5672ZM70.1578 65.02L74.2978 53.74H76.1578L72.0178 65.02H70.1578ZM78.0731 65.68V64H83.8331V65.68H78.0731ZM85.7485 65.02L89.8885 53.74H91.7485L87.6085 65.02H85.7485ZM97.6718 65.02L93.5318 53.74H95.3918L99.5318 65.02H97.6718ZM101.459 65.68V64H107.219V65.68H101.459ZM109.254 65.68V64H115.014V65.68H109.254ZM117.05 65.68V64H122.81V65.68H117.05ZM124.845 65.68V64H130.605V65.68H124.845ZM132.52 65.02L136.66 53.74H138.52L134.38 65.02H132.52ZM151.111 63.82C150.751 63.82 150.459 63.708 150.235 63.484C150.011 63.26 149.899 62.968 149.899 62.608C149.899 62.248 150.011 61.956 150.235 61.732C150.459 61.508 150.751 61.396 151.111 61.396C151.471 61.396 151.763 61.508 151.987 61.732C152.211 61.956 152.323 62.248 152.323 62.608C152.323 62.968 152.211 63.26 151.987 63.484C151.763 63.708 151.471 63.82 151.111 63.82ZM156.026 65.68V64H161.786V65.68H156.026ZM163.822 65.68V64H169.582V65.68H163.822ZM171.617 65.68V64H177.377V65.68H171.617ZM179.292 65.02L183.432 53.74H185.292L181.152 65.02H179.292ZM124.725 81.02L128.865 69.74H130.725L126.585 81.02H124.725ZM132.64 81.68V80H138.4V81.68H132.64ZM140.316 81.02L144.456 69.74H146.316L142.176 81.02H140.316Z" fill="#3c412c" stroke-width="2"/>
</svg>
