<svg width="724" height="146" viewBox="0 0 724 146" fill="none" xmlns="http://www.w3.org/2000/svg">
<path d="M156.026 1.68V-3.04729e-06H161.786V1.68H156.026ZM406.072 1.68V-3.04729e-06H419.032V1.68H406.072ZM109.254 17.68V16H115.014V17.68H109.254ZM117.05 17.68V16H122.81V17.68H117.05ZM124.845 17.68V16H130.605V17.68H124.845ZM132.64 17.68V16H138.4V17.68H132.64ZM140.436 17.68V16H146.196V17.68H140.436ZM153.331 17.14C152.075 16.844 151.099 16.284 150.403 15.46C149.715 14.628 149.371 13.62 149.371 12.436V10.3C149.371 9.116 149.715 8.116 150.403 7.3C151.099 6.484 152.075 5.924 153.331 5.62V7.42C152.667 7.572 152.139 7.908 151.747 8.428C151.363 8.94 151.171 9.564 151.171 10.3V12.436C151.171 13.164 151.363 13.788 151.747 14.308C152.139 14.82 152.667 15.156 153.331 15.316V17.14ZM156.026 17.68V16H161.786V17.68H156.026ZM164.482 17.14V15.316C165.146 15.156 165.67 14.82 166.054 14.308C166.446 13.788 166.642 13.164 166.642 12.436V10.3C166.642 9.564 166.446 8.94 166.054 8.428C165.67 7.908 165.146 7.572 164.482 7.42V5.62C165.746 5.924 166.722 6.484 167.41 7.3C168.098 8.116 168.442 9.116 168.442 10.3V12.436C168.442 13.62 168.098 14.628 167.41 15.46C166.722 16.284 165.746 16.844 164.482 17.14ZM171.617 17.68V16H177.377V17.68H171.617ZM179.412 17.68V16H185.172V17.68H179.412ZM187.208 17.68V16H192.968V17.68H187.208ZM202.798 17.68V16H208.558V17.68H202.798ZM210.593 17.68V16H216.353V17.68H210.593ZM218.389 17.68V16H224.149V17.68H218.389ZM226.184 17.68V16H231.944V17.68H226.184ZM233.979 17.68V16H239.739V17.68H233.979ZM281.347 17.68V16H294.307V17.68H281.347ZM311.933 17.68V16H317.693V17.68H311.933ZM319.728 17.68V16H325.488V17.68H319.728ZM327.523 17.68V16H333.283V17.68H327.523ZM335.318 17.68V16H341.078V17.68H335.318ZM343.114 17.68V16H348.874V17.68H343.114ZM350.909 17.68V16H356.669V17.68H350.909ZM397.561 17.02L401.701 5.74H403.561L399.421 17.02H397.561ZM413.152 17.02L417.292 5.74H419.152L415.012 17.02H413.152ZM421.067 17.68V16H426.827V17.68H421.067ZM428.862 17.68V16H434.622V17.68H428.862ZM436.658 17.68V16H442.418V17.68H436.658ZM444.453 17.68V16H450.213V17.68H444.453ZM452.248 17.68V16H458.008V17.68H452.248ZM101.339 33.02L105.479 21.74H107.339L103.199 33.02H101.339ZM117.05 33.68V32H122.81V33.68H117.05ZM124.845 33.68V32H130.605V33.68H124.845ZM132.64 33.68V32H138.4V33.68H132.64ZM140.316 33.02L144.456 21.74H146.316L142.176 33.02H140.316ZM155.906 33.02L160.046 21.74H161.906L157.766 33.02H155.906ZM172.212 33.68V32H185.172V33.68H172.212ZM197.247 23.96L195.843 22.28H197.823L199.083 23.96H197.247ZM202.678 33.02L206.818 21.74H208.678L204.538 33.02H202.678ZM218.984 33.68V32H231.944V33.68H218.984ZM245.783 33.02L241.643 21.74H243.503L247.643 33.02H245.783ZM272.836 33.02L276.976 21.74H278.836L274.696 33.02H272.836ZM288.427 33.02L292.567 21.74H294.427L290.287 33.02H288.427ZM304.017 33.02L308.157 21.74H310.017L305.877 33.02H304.017ZM319.608 33.02L323.748 21.74H325.608L321.468 33.02H319.608ZM335.914 33.68V32H348.874V33.68H335.914ZM362.712 33.02L358.572 21.74H360.432L364.572 33.02H362.712ZM389.766 33.02L393.906 21.74H395.766L391.626 33.02H389.766ZM406.072 33.68V32H419.032V33.68H406.072ZM420.947 33.02L425.087 21.74H426.947L422.807 33.02H420.947ZM437.253 33.68V32H450.213V33.68H437.253ZM464.051 33.02L459.911 21.74H461.771L465.911 33.02H464.051ZM98.7638 49.14C97.5078 48.844 96.5318 48.284 95.8358 47.46C95.1478 46.628 94.8038 45.62 94.8038 44.436V42.3C94.8038 41.116 95.1478 40.116 95.8358 39.3C96.5318 38.484 97.5078 37.924 98.7638 37.62V39.42C98.0998 39.572 97.5718 39.908 97.1798 40.428C96.7958 40.94 96.6038 41.564 96.6038 42.3V44.436C96.6038 45.164 96.7958 45.788 97.1798 46.308C97.5718 46.82 98.0998 47.156 98.7638 47.316V49.14ZM102.054 49.68V48H115.014V49.68H102.054ZM133.3 49.14V47.316C133.964 47.156 134.488 46.82 134.872 46.308C135.264 45.788 135.46 45.164 135.46 44.436V42.3C135.46 41.564 135.264 40.94 134.872 40.428C134.488 39.908 133.964 39.572 133.3 39.42V37.62C134.564 37.924 135.54 38.484 136.228 39.3C136.916 40.116 137.26 41.116 137.26 42.3V44.436C137.26 45.62 136.916 46.628 136.228 47.46C135.54 48.284 134.564 48.844 133.3 49.14ZM148.111 49.02L152.251 37.74H154.111L149.971 49.02H148.111ZM163.702 49.02L167.842 37.74H169.702L165.562 49.02H163.702ZM171.617 49.68V48H177.377V49.68H171.617ZM179.292 49.02L183.432 37.74H185.292L181.152 49.02H179.292ZM194.883 49.02L199.023 37.74H200.883L196.743 49.02H194.883ZM210.473 49.02L214.613 37.74H216.473L212.333 49.02H210.473ZM226.064 49.02L230.204 37.74H232.064L227.924 49.02H226.064ZM241.655 49.02L245.795 37.74H247.655L243.515 49.02H241.655ZM265.041 49.02L269.181 37.74H271.041L266.901 49.02H265.041ZM280.631 49.02L284.771 37.74H286.631L282.491 49.02H280.631ZM288.547 49.68V48H294.307V49.68H288.547ZM296.222 49.02L300.362 37.74H302.222L298.082 49.02H296.222ZM311.813 49.02L315.953 37.74H317.813L313.673 49.02H311.813ZM327.403 49.02L331.543 37.74H333.403L329.263 49.02H327.403ZM335.318 49.68V48H341.078V49.68H335.318ZM342.994 49.02L347.134 37.74H348.994L344.854 49.02H342.994ZM358.584 49.02L362.724 37.74H364.584L360.444 49.02H358.584ZM381.97 49.02L386.11 37.74H387.97L383.83 49.02H381.97ZM397.561 49.02L401.701 37.74H403.561L399.421 49.02H397.561ZM405.476 49.68V48H411.236V49.68H405.476ZM413.152 49.02L417.292 37.74H419.152L415.012 49.02H413.152ZM428.742 49.02L432.882 37.74H434.742L430.602 49.02H428.742ZM436.658 49.68V48H442.418V49.68H436.658ZM444.333 49.02L448.473 37.74H450.333L446.193 49.02H444.333ZM459.923 49.02L464.063 37.74H465.923L461.783 49.02H459.923ZM70.8731 65.68V64H83.8331V65.68H70.8731ZM85.7485 65.02L89.8885 53.74H91.7485L87.6085 65.02H85.7485ZM93.6638 65.68V64H99.4238V65.68H93.6638ZM101.459 65.68V64H107.219V65.68H101.459ZM109.254 65.68V64H115.014V65.68H109.254ZM117.05 65.68V64H122.81V65.68H117.05ZM124.725 65.02L128.865 53.74H130.725L126.585 65.02H124.725ZM132.64 65.68V64H138.4V65.68H132.64ZM140.316 65.02L144.456 53.74H146.316L142.176 65.02H140.316ZM152.239 65.02L148.099 53.74H149.959L154.099 65.02H152.239ZM156.622 65.68V64H169.582V65.68H156.622ZM172.997 65.62L173.621 61.948H175.637L174.677 65.62H172.997ZM187.088 65.02L191.228 53.74H193.088L188.948 65.02H187.088ZM195.003 65.68V64H200.763V65.68H195.003ZM202.678 65.02L206.818 53.74H208.678L204.538 65.02H202.678ZM218.269 65.02L222.409 53.74H224.269L220.129 65.02H218.269ZM226.184 65.68V64H231.944V65.68H226.184ZM233.859 65.02L237.999 53.74H239.859L235.719 65.02H233.859ZM242.37 65.68V64H255.33V65.68H242.37ZM269.169 65.02L265.029 53.74H266.889L271.029 65.02H269.169ZM273.551 65.68V64H286.511V65.68H273.551ZM289.927 65.62L290.551 61.948H292.567L291.607 65.62H289.927ZM296.342 65.68V64H302.102V65.68H296.342ZM304.017 65.02L308.157 53.74H310.017L305.877 65.02H304.017ZM322.608 63.82C322.248 63.82 321.956 63.708 321.732 63.484C321.508 63.26 321.396 62.968 321.396 62.608C321.396 62.248 321.508 61.956 321.732 61.732C321.956 61.508 322.248 61.396 322.608 61.396C322.968 61.396 323.26 61.508 323.484 61.732C323.708 61.956 323.82 62.248 323.82 62.608C323.82 62.968 323.708 63.26 323.484 63.484C323.26 63.708 322.968 63.82 322.608 63.82ZM327.523 65.68V64H333.283V65.68H327.523ZM335.318 65.68V64H341.078V65.68H335.318ZM343.114 65.68V64H348.874V65.68H343.114ZM350.789 65.02L354.929 53.74H356.789L352.649 65.02H350.789ZM386.098 65.02L381.958 53.74H383.818L387.958 65.02H386.098ZM390.481 65.68V64H403.441V65.68H390.481ZM405.356 65.02L409.496 53.74H411.356L407.216 65.02H405.356ZM417.28 65.02L413.14 53.74H415L419.14 65.02H417.28ZM421.067 65.68V64H426.827V65.68H421.067ZM428.862 65.68V64H434.622V65.68H428.862ZM436.658 65.68V64H442.418V65.68H436.658ZM444.453 65.68V64H450.213V65.68H444.453ZM452.128 65.02L456.268 53.74H458.128L453.988 65.02H452.128ZM460.043 65.68V64H465.803V65.68H460.043ZM593.159 65.68V64H606.119V65.68H593.159ZM623.745 65.68V64H629.505V65.68H623.745ZM23.506 81.68V80H29.266V81.68H23.506ZM31.3013 81.68V80H37.0613V81.68H31.3013ZM39.0966 81.68V80H44.8566V81.68H39.0966ZM46.8919 81.68V80H52.6519V81.68H46.8919ZM54.6872 81.68V80H60.4472V81.68H54.6872ZM62.3625 81.02L66.5025 69.74H68.3625L64.2225 81.02H62.3625ZM77.9531 81.02L82.0931 69.74H83.9531L79.8131 81.02H77.9531ZM85.8685 81.68V80H91.6285V81.68H85.8685ZM93.6638 81.68V80H99.4238V81.68H93.6638ZM101.459 81.68V80H107.219V81.68H101.459ZM109.254 81.68V80H115.014V81.68H109.254ZM117.05 81.68V80H122.81V81.68H117.05ZM132.64 81.68V80H138.4V81.68H132.64ZM140.316 81.02L144.456 69.74H146.316L142.176 81.02H140.316ZM148.231 81.68V80H153.991V81.68H148.231ZM156.026 81.68V80H161.786V81.68H156.026ZM163.822 81.68V80H169.582V81.68H163.822ZM171.617 81.68V80H177.377V81.68H171.617ZM179.292 81.02L183.432 69.74H185.292L181.152 81.02H179.292ZM194.883 81.02L199.023 69.74H200.883L196.743 81.02H194.883ZM202.798 81.68V80H208.558V81.68H202.798ZM233.859 81.02L237.999 69.74H239.859L235.719 81.02H233.859ZM249.45 81.02L253.59 69.74H255.45L251.31 81.02H249.45ZM257.365 81.68V80H263.125V81.68H257.365ZM281.347 81.68V80H294.307V81.68H281.347ZM296.222 81.02L300.362 69.74H302.222L298.082 81.02H296.222ZM304.137 81.68V80H309.897V81.68H304.137ZM311.813 81.02L315.953 69.74H317.813L313.673 81.02H311.813ZM319.728 81.68V80H325.488V81.68H319.728ZM327.523 81.68V80H333.283V81.68H327.523ZM335.318 81.68V80H341.078V81.68H335.318ZM343.114 81.68V80H348.874V81.68H343.114ZM366.5 81.68V80H372.26V81.68H366.5ZM374.295 81.68V80H380.055V81.68H374.295ZM382.09 81.68V80H387.85V81.68H382.09ZM389.886 81.68V80H395.646V81.68H389.886ZM405.476 81.68V80H411.236V81.68H405.476ZM413.272 81.68V80H419.032V81.68H413.272ZM421.067 81.68V80H426.827V81.68H421.067ZM428.862 81.68V80H434.622V81.68H428.862ZM436.658 81.68V80H442.418V81.68H436.658ZM444.333 81.02L448.473 69.74H450.333L446.193 81.02H444.333ZM459.923 81.02L464.063 69.74H465.923L461.783 81.02H459.923ZM467.839 81.68V80H473.599V81.68H467.839ZM475.634 81.68V80H481.394V81.68H475.634ZM483.429 81.68V80H489.189V81.68H483.429ZM491.225 81.68V80H496.985V81.68H491.225ZM499.02 81.68V80H504.78V81.68H499.02ZM506.815 81.68V80H512.575V81.68H506.815ZM514.611 81.68V80H520.371V81.68H514.611ZM522.406 81.68V80H528.166V81.68H522.406ZM537.997 81.68V80H543.757V81.68H537.997ZM545.792 81.68V80H551.552V81.68H545.792ZM553.587 81.68V80H559.347V81.68H553.587ZM561.383 81.68V80H567.143V81.68H561.383ZM569.178 81.68V80H574.938V81.68H569.178ZM576.973 81.68V80H582.733V81.68H576.973ZM584.648 81.02L588.788 69.74H590.648L586.508 81.02H584.648ZM600.239 81.02L604.379 69.74H606.239L602.099 81.02H600.239ZM608.154 81.68V80H613.914V81.68H608.154ZM621.05 81.14C619.794 80.844 618.818 80.284 618.122 79.46C617.434 78.628 617.09 77.62 617.09 76.436V74.3C617.09 73.116 617.434 72.116 618.122 71.3C618.818 70.484 619.794 69.924 621.05 69.62V71.42C620.386 71.572 619.858 71.908 619.466 72.428C619.082 72.94 618.89 73.564 618.89 74.3V76.436C618.89 77.164 619.082 77.788 619.466 78.308C619.858 78.82 620.386 79.156 621.05 79.316V81.14ZM623.745 81.68V80H629.505V81.68H623.745ZM632.2 81.14V79.316C632.864 79.156 633.388 78.82 633.772 78.308C634.164 77.788 634.36 77.164 634.36 76.436V74.3C634.36 73.564 634.164 72.94 633.772 72.428C633.388 71.908 632.864 71.572 632.2 71.42V69.62C633.464 69.924 634.44 70.484 635.128 71.3C635.816 72.116 636.16 73.116 636.16 74.3V76.436C636.16 77.62 635.816 78.628 635.128 79.46C634.44 80.284 633.464 80.844 632.2 81.14ZM639.336 81.68V80H645.096V81.68H639.336ZM647.131 81.68V80H652.891V81.68H647.131ZM654.926 81.68V80H660.686V81.68H654.926ZM678.312 81.68V80H684.072V81.68H678.312ZM686.108 81.68V80H691.868V81.68H686.108ZM693.903 81.68V80H699.663V81.68H693.903ZM701.698 81.68V80H707.458V81.68H701.698ZM717.289 81.68V80H723.049V81.68H717.289ZM15.5906 97.02L19.7306 85.74H21.5906L17.4506 97.02H15.5906ZM31.3013 97.68V96H37.0613V97.68H31.3013ZM39.0966 97.68V96H44.8566V97.68H39.0966ZM46.8919 97.68V96H52.6519V97.68H46.8919ZM54.5672 97.02L58.7072 85.74H60.5672L56.4272 97.02H54.5672ZM70.8731 97.68V96H83.8331V97.68H70.8731ZM85.7485 97.02L89.8885 85.74H91.7485L87.6085 97.02H85.7485ZM102.054 97.68V96H115.014V97.68H102.054ZM127.089 87.96L125.685 86.28H127.665L128.925 87.96H127.089ZM132.52 97.02L136.66 85.74H138.52L134.38 97.02H132.52ZM148.231 97.68V96H153.991V97.68H148.231ZM156.026 97.68V96H161.786V97.68H156.026ZM163.822 97.68V96H169.582V97.68H163.822ZM171.497 97.02L175.637 85.74H177.497L173.357 97.02H171.497ZM187.803 97.68V96H200.763V97.68H187.803ZM202.678 97.02L206.818 85.74H208.678L204.538 97.02H202.678ZM226.064 97.02L230.204 85.74H232.064L227.924 97.02H226.064ZM242.37 97.68V96H255.33V97.68H242.37ZM271.216 97.02L267.088 85.74H268.948L271.876 93.828L272.236 95.052L272.596 93.828L275.488 85.74H277.384L273.256 97.02H271.216ZM288.547 97.68V96H294.307V97.68H288.547ZM296.342 97.68V96H302.102V97.68H296.342ZM304.137 97.68V96H309.897V97.68H304.137ZM311.813 97.02L315.953 85.74H317.813L313.673 97.02H311.813ZM328.118 97.68V96H341.078V97.68H328.118ZM356.964 97.02L352.836 85.74H354.696L357.624 93.828L357.984 95.052L358.344 93.828L361.236 85.74H363.132L359.004 97.02H356.964ZM374.89 97.68V96H387.85V97.68H374.89ZM399.925 87.96L398.521 86.28H400.501L401.761 87.96H399.925ZM405.356 97.02L409.496 85.74H411.356L407.216 97.02H405.356ZM421.662 97.68V96H434.622V97.68H421.662ZM452.128 97.02L456.268 85.74H458.128L453.988 97.02H452.128ZM467.839 97.68V96H473.599V97.68H467.839ZM475.634 97.68V96H481.394V97.68H475.634ZM483.429 97.68V96H489.189V97.68H483.429ZM491.105 97.02L495.245 85.74H497.105L492.965 97.02H491.105ZM507.411 97.68V96H520.371V97.68H507.411ZM532.445 87.96L531.041 86.28H533.021L534.281 87.96H532.445ZM537.877 97.02L542.017 85.74H543.877L539.737 97.02H537.877ZM553.587 97.68V96H559.347V97.68H553.587ZM561.383 97.68V96H567.143V97.68H561.383ZM569.178 97.68V96H574.938V97.68H569.178ZM576.853 97.02L580.993 85.74H582.853L578.713 97.02H576.853ZM593.159 97.68V96H606.119V97.68H593.159ZM608.034 97.02L612.174 85.74H614.034L609.894 97.02H608.034ZM623.625 97.02L627.765 85.74H629.625L625.485 97.02H623.625ZM639.931 97.68V96H652.891V97.68H639.931ZM668.777 97.02L664.649 85.74H666.509L669.437 93.828L669.797 95.052L670.157 93.828L673.049 85.74H674.945L670.817 97.02H668.777ZM686.703 97.68V96H699.663V97.68H686.703ZM711.737 87.96L710.333 86.28H712.313L713.573 87.96H711.737ZM717.169 97.02L721.309 85.74H723.169L719.029 97.02H717.169ZM13.0153 113.14C11.7593 112.844 10.7833 112.284 10.0873 111.46C9.39934 110.628 9.05534 109.62 9.05534 108.436V106.3C9.05534 105.116 9.39934 104.116 10.0873 103.3C10.7833 102.484 11.7593 101.924 13.0153 101.62V103.42C12.3513 103.572 11.8233 103.908 11.4313 104.428C11.0473 104.94 10.8553 105.564 10.8553 106.3V108.436C10.8553 109.164 11.0473 109.788 11.4313 110.308C11.8233 110.82 12.3513 111.156 13.0153 111.316V113.14ZM16.306 113.68V112H29.266V113.68H16.306ZM47.5519 113.14V111.316C48.2159 111.156 48.7399 110.82 49.1239 110.308C49.5159 109.788 49.7119 109.164 49.7119 108.436V106.3C49.7119 105.564 49.5159 104.94 49.1239 104.428C48.7399 103.908 48.2159 103.572 47.5519 103.42V101.62C48.8159 101.924 49.7919 102.484 50.4799 103.3C51.1679 104.116 51.5119 105.116 51.5119 106.3V108.436C51.5119 109.62 51.1679 110.628 50.4799 111.46C49.7919 112.284 48.8159 112.844 47.5519 113.14ZM62.3625 113.02L66.5025 101.74H68.3625L64.2225 113.02H62.3625ZM70.2778 113.68V112H76.0378V113.68H70.2778ZM77.9531 113.02L82.0931 101.74H83.9531L79.8131 113.02H77.9531ZM93.5438 113.02L97.6838 101.74H99.5438L95.4038 113.02H93.5438ZM101.459 113.68V112H107.219V113.68H101.459ZM109.134 113.02L113.274 101.74H115.134L110.994 113.02H109.134ZM124.725 113.02L128.865 101.74H130.725L126.585 113.02H124.725ZM140.316 113.02L144.456 101.74H146.316L142.176 113.02H140.316ZM163.702 113.02L167.842 101.74H169.702L165.562 113.02H163.702ZM179.292 113.02L183.432 101.74H185.292L181.152 113.02H179.292ZM187.208 113.68V112H192.968V113.68H187.208ZM218.269 113.02L222.409 101.74H224.269L220.129 113.02H218.269ZM233.859 113.02L237.999 101.74H239.859L235.719 113.02H233.859ZM241.775 113.68V112H247.535V113.68H241.775ZM249.45 113.02L253.59 101.74H255.45L251.31 113.02H249.45ZM265.041 113.02L269.181 101.74H271.041L266.901 113.02H265.041ZM280.631 113.02L284.771 101.74H286.631L282.491 113.02H280.631ZM304.017 113.02L308.157 101.74H310.017L305.877 113.02H304.017ZM319.608 113.02L323.748 101.74H325.608L321.468 113.02H319.608ZM327.523 113.68V112H333.283V113.68H327.523ZM335.198 113.02L339.338 101.74H341.198L337.058 113.02H335.198ZM350.789 113.02L354.929 101.74H356.789L352.649 113.02H350.789ZM366.38 113.02L370.52 101.74H372.38L368.24 113.02H366.38ZM374.295 113.68V112H380.055V113.68H374.295ZM381.97 113.02L386.11 101.74H387.97L383.83 113.02H381.97ZM397.561 113.02L401.701 101.74H403.561L399.421 113.02H397.561ZM413.152 113.02L417.292 101.74H419.152L415.012 113.02H413.152ZM421.067 113.68V112H426.827V113.68H421.067ZM428.742 113.02L432.882 101.74H434.742L430.602 113.02H428.742ZM444.333 113.02L448.473 101.74H450.333L446.193 113.02H444.333ZM459.923 113.02L464.063 101.74H465.923L461.783 113.02H459.923ZM468.434 113.68V112H481.394V113.68H468.434ZM483.309 113.02L487.449 101.74H489.309L485.169 113.02H483.309ZM498.9 113.02L503.04 101.74H504.9L500.76 113.02H498.9ZM506.815 113.68V112H512.575V113.68H506.815ZM514.491 113.02L518.631 101.74H520.491L516.351 113.02H514.491ZM535.301 113.14C534.045 112.844 533.069 112.284 532.373 111.46C531.685 110.628 531.341 109.62 531.341 108.436V106.3C531.341 105.116 531.685 104.116 532.373 103.3C533.069 102.484 534.045 101.924 535.301 101.62V103.42C534.637 103.572 534.109 103.908 533.717 104.428C533.333 104.94 533.141 105.564 533.141 106.3V108.436C533.141 109.164 533.333 109.788 533.717 110.308C534.109 110.82 534.637 111.156 535.301 111.316V113.14ZM538.592 113.68V112H551.552V113.68H538.592ZM569.838 113.14V111.316C570.502 111.156 571.026 110.82 571.41 110.308C571.802 109.788 571.998 109.164 571.998 108.436V106.3C571.998 105.564 571.802 104.94 571.41 104.428C571.026 103.908 570.502 103.572 569.838 103.42V101.62C571.102 101.924 572.078 102.484 572.766 103.3C573.454 104.116 573.798 105.116 573.798 106.3V108.436C573.798 109.62 573.454 110.628 572.766 111.46C572.078 112.284 571.102 112.844 569.838 113.14ZM584.648 113.02L588.788 101.74H590.648L586.508 113.02H584.648ZM592.564 113.68V112H598.324V113.68H592.564ZM600.239 113.02L604.379 101.74H606.239L602.099 113.02H600.239ZM615.83 113.02L619.97 101.74H621.83L617.69 113.02H615.83ZM631.42 113.02L635.56 101.74H637.42L633.28 113.02H631.42ZM647.011 113.02L651.151 101.74H653.011L648.871 113.02H647.011ZM662.602 113.02L666.742 101.74H668.602L664.462 113.02H662.602ZM678.192 113.02L682.332 101.74H684.192L680.052 113.02H678.192ZM686.108 113.68V112H691.868V113.68H686.108ZM693.783 113.02L697.923 101.74H699.783L695.643 113.02H693.783ZM709.373 113.02L713.513 101.74H715.373L711.233 113.02H709.373ZM2.4423e-05 129.02L4.14002 117.74H6.00002L1.86002 129.02H2.4423e-05ZM7.91534 129.68V128H13.6753V129.68H7.91534ZM15.7106 129.68V128H21.4706V129.68H15.7106ZM23.506 129.68V128H29.266V129.68H23.506ZM31.3013 129.68V128H37.0613V129.68H31.3013ZM38.9766 129.02L43.1166 117.74H44.9766L40.8366 129.02H38.9766ZM50.8999 129.02L46.7599 117.74H48.6199L52.7599 129.02H50.8999ZM55.2825 129.68V128H68.2425V129.68H55.2825ZM70.1578 129.02L74.2978 117.74H76.1578L72.0178 129.02H70.1578ZM82.0811 129.02L77.9411 117.74H79.8011L83.9411 129.02H82.0811ZM86.4638 129.68V128H99.4238V129.68H86.4638ZM102.839 129.62L103.463 125.948H105.479L104.519 129.62H102.839ZM109.254 129.68V128H115.014V129.68H109.254ZM116.93 129.02L121.07 117.74H122.93L118.79 129.02H116.93ZM124.845 129.68V128H130.605V129.68H124.845ZM132.52 129.02L136.66 117.74H138.52L134.38 129.02H132.52ZM167.83 129.02L163.69 117.74H165.55L169.69 129.02H167.83ZM172.212 129.68V128H185.172V129.68H172.212ZM187.088 129.02L191.228 117.74H193.088L188.948 129.02H187.088ZM210.473 129.02L214.613 117.74H216.473L212.333 129.02H210.473ZM218.389 129.68V128H224.149V129.68H218.389ZM229.064 127.82C228.704 127.82 228.412 127.708 228.188 127.484C227.964 127.26 227.852 126.968 227.852 126.608C227.852 126.248 227.964 125.956 228.188 125.732C228.412 125.508 228.704 125.396 229.064 125.396C229.424 125.396 229.716 125.508 229.94 125.732C230.164 125.956 230.276 126.248 230.276 126.608C230.276 126.968 230.164 127.26 229.94 127.484C229.716 127.708 229.424 127.82 229.064 127.82ZM233.979 129.68V128H239.739V129.68H233.979ZM241.775 129.68V128H247.535V129.68H241.775ZM249.57 129.68V128H255.33V129.68H249.57ZM257.245 129.02L261.385 117.74H263.245L259.105 129.02H257.245ZM265.161 129.68V128H270.921V129.68H265.161ZM272.836 129.02L276.976 117.74H278.836L274.696 129.02H272.836ZM308.145 129.02L304.005 117.74H305.865L310.005 129.02H308.145ZM311.933 129.68V128H317.693V129.68H311.933ZM319.728 129.68V128H325.488V129.68H319.728ZM327.523 129.68V128H333.283V129.68H327.523ZM335.318 129.68V128H341.078V129.68H335.318ZM342.994 129.02L347.134 117.74H348.994L344.854 129.02H342.994ZM354.917 129.02L350.777 117.74H352.637L356.777 129.02H354.917ZM359.3 129.68V128H372.26V129.68H359.3ZM375.675 129.62L376.299 125.948H378.315L377.355 129.62H375.675ZM382.09 129.68V128H387.85V129.68H382.09ZM389.766 129.02L393.906 117.74H395.766L391.626 129.02H389.766ZM401.689 129.02L397.549 117.74H399.409L403.549 129.02H401.689ZM406.072 129.68V128H419.032V129.68H406.072ZM422.447 129.62L423.071 125.948H425.087L424.127 129.62H422.447ZM428.862 129.68V128H434.622V129.68H428.862ZM436.538 129.02L440.678 117.74H442.538L438.398 129.02H436.538ZM448.461 129.02L444.321 117.74H446.181L450.321 129.02H448.461ZM452.248 129.68V128H458.008V129.68H452.248ZM460.043 129.68V128H465.803V129.68H460.043ZM467.839 129.68V128H473.599V129.68H467.839ZM475.514 129.02L479.654 117.74H481.514L477.374 129.02H475.514ZM487.437 129.02L483.297 117.74H485.157L489.297 129.02H487.437ZM491.82 129.68V128H504.78V129.68H491.82ZM508.195 129.62L508.819 125.948H510.835L509.875 129.62H508.195ZM514.611 129.68V128H520.371V129.68H514.611ZM522.286 129.02L526.426 117.74H528.286L524.146 129.02H522.286ZM530.201 129.68V128H535.961V129.68H530.201ZM537.997 129.68V128H543.757V129.68H537.997ZM545.792 129.68V128H551.552V129.68H545.792ZM553.587 129.68V128H559.347V129.68H553.587ZM561.263 129.02L565.403 117.74H567.263L563.123 129.02H561.263ZM573.186 129.02L569.046 117.74H570.906L575.046 129.02H573.186ZM577.568 129.68V128H590.528V129.68H577.568ZM592.444 129.02L596.584 117.74H598.444L594.304 129.02H592.444ZM600.359 129.68V128H606.119V129.68H600.359ZM608.034 129.02L612.174 117.74H614.034L609.894 129.02H608.034ZM615.95 129.68V128H621.71V129.68H615.95ZM623.625 129.02L627.765 117.74H629.625L625.485 129.02H623.625ZM639.216 129.02L643.356 117.74H645.216L641.076 129.02H639.216ZM647.131 129.68V128H652.891V129.68H647.131ZM654.806 129.02L658.946 117.74H660.806L656.666 129.02H654.806ZM666.73 129.02L662.59 117.74H664.45L668.59 129.02H666.73ZM671.112 129.68V128H684.072V129.68H671.112ZM687.488 129.62L688.112 125.948H690.128L689.168 129.62H687.488ZM701.578 129.02L705.718 117.74H707.578L703.438 129.02H701.578ZM654.806 145.02L658.946 133.74H660.806L656.666 145.02H654.806ZM662.722 145.68V144H668.482V145.68H662.722ZM670.517 145.68V144H676.277V145.68H670.517ZM678.312 145.68V144H684.072V145.68H678.312ZM686.108 145.68V144H691.868V145.68H686.108ZM693.783 145.02L697.923 133.74H699.783L695.643 145.02H693.783Z" fill="white"/>
</svg>
